<?xml version="1.0" standalone="no"?>
<!DOCTYPE svg PUBLIC "-//W3C//DTD SVG 20010904//EN" "http://www.w3.org/TR/2001/REC-SVG-20010904/DTD/svg10.dtd">
<!-- Created using Krita: http://krita.org -->
<svg xmlns="http://www.w3.org/2000/svg" 
    xmlns:xlink="http://www.w3.org/1999/xlink"
    xmlns:krita="http://krita.org/namespaces/svg/krita"
    xmlns:sodipodi="http://sodipodi.sourceforge.net/DTD/sodipodi-0.dtd"
    width="727.92pt"
    height="339.12pt"
    viewBox="0 0 727.92 339.12">
<defs/>
<path id="shape0" transform="translate(464.761, 276.301)" fill="#ffac75" fill-rule="evenodd" stroke="#000000" stroke-opacity="0" stroke-width="0" stroke-linecap="square" stroke-linejoin="bevel" d="M8.296 0L308.523 0.029L310.422 0.247L312.165 0.871L313.703 1.848L314.985 3.131L315.962 4.668L316.585 6.412L316.804 8.31L316.784 214.603L316.565 216.502L315.942 218.245L314.964 219.782L313.682 221.065L312.144 222.042L310.401 222.665L308.502 222.883L80.507 222.862L0 152.113L0.014 8.28L0.233 6.381L0.856 4.639L1.834 3.101L3.116 1.819L4.654 0.841L6.397 0.219L8.296 0"/><path id="shape1" transform="translate(588.6, 429.12)" fill="#ff933a" fill-rule="evenodd" stroke="#000000" stroke-opacity="0" stroke-width="0" stroke-linecap="square" stroke-linejoin="bevel" d="M15.84 0C21.24 6.12 23.4 7.2 28.8 7.2C32.4 7.2 35.52 7.2 38.16 7.2C40.32 8.4 39.12 10.32 34.56 12.96C27.72 16.92 20.52 23.76 12.96 21.96C5.4 20.16 0 16.92 0 13.32C0 9.72 0.12826 9.57016 15.84 0Z"/><path id="shape3" transform="translate(485.584985444912, 294.577803519512)" fill="#63352d" fill-rule="evenodd" stroke="#000000" stroke-opacity="0" stroke-width="0" stroke-linecap="square" stroke-linejoin="bevel" d="M1.13501 34.4622C2.57501 27.5022 7.13501 21.3822 14.815 16.1022C26.335 8.1822 40.375 1.3422 52.975 0.262197C65.575 -0.817803 67.375 1.3422 71.335 8.5422C75.295 15.7422 73.495 19.3422 72.775 24.3822C72.055 29.4222 69.535 26.1822 56.935 29.4222C44.335 32.6622 40.735 30.1422 28.855 37.3422C16.975 44.5422 19.855 49.5822 14.095 52.1022C8.33501 54.6222 2.57501 49.2222 1.13501 42.0222C-0.304986 34.8222 -0.449953 34.8318 1.13501 34.4622Z"/><path id="shape03" transform="matrix(-0.999999969811587 0 0 0.999999969811587 756.546274467231 294.754598717427)" fill="#63352d" fill-rule="evenodd" stroke="#000000" stroke-width="1" stroke-linecap="square" stroke-linejoin="bevel" d="M1.13501 34.4622C2.57501 27.5022 7.13501 21.3822 14.815 16.1022C26.335 8.1822 40.375 1.3422 52.975 0.262197C65.575 -0.817803 67.375 1.3422 71.335 8.5422C75.295 15.7422 73.495 19.3422 72.775 24.3822C72.055 29.4222 69.535 26.1822 56.935 29.4222C44.335 32.6622 40.735 30.1422 28.855 37.3422C16.975 44.5422 19.855 49.5822 14.095 52.1022C8.33501 54.6222 2.57501 49.2222 1.13501 42.0222C-0.304986 34.8222 -0.449953 34.8318 1.13501 34.4622Z"/><path id="shape4" transform="translate(450.930393572597, 189.944290140391)" fill="#5f3e1d" fill-rule="evenodd" stroke="#000000" stroke-opacity="0" stroke-width="0" stroke-linecap="square" stroke-linejoin="bevel" d="M4.40629 72.6546C2.96629 78.7746 -4.95371 127.375 4.76629 131.335C14.4863 135.295 50.1263 125.575 76.4063 120.175C102.686 114.775 159.206 87.0546 171.086 89.5746C182.966 92.0946 202.766 118.735 225.446 126.295C248.126 133.855 309.686 171.295 332.366 173.455C355.046 175.615 350.726 167.695 344.606 140.335C338.486 112.975 338.126 91.0146 321.206 67.2546C304.286 43.4946 238.046 14.3346 213.926 6.77461C189.806 -0.785381 173.606 -1.50539 143.726 2.09461C113.846 5.69461 113.71 5.8659 4.40629 72.6546Z"/><path id="shape11" transform="translate(79.1886, 292.41)" fill="#ffadad" fill-rule="evenodd" stroke="#000000" stroke-opacity="0" stroke-width="0" stroke-linecap="square" stroke-linejoin="bevel" d="M29.5584 0L287.962 0L289.639 0.047L291.292 0.185L292.917 0.414L294.514 0.729L296.078 1.128L297.607 1.61L299.1 2.17L300.553 2.808L301.964 3.521L303.331 4.305L304.65 5.158L305.92 6.079L307.138 7.064L308.302 8.111L309.408 9.218L310.455 10.381L311.441 11.599L312.361 12.87L313.215 14.189L313.999 15.556L314.711 16.967L315.349 18.42L315.91 19.912L316.391 21.442L316.791 23.006L317.106 24.602L317.334 26.228L317.473 27.881L317.52 29.558L317.52 131.843L316.999 131.88L315.375 132.041L313.764 132.247L312.165 132.498L310.58 132.792L309.008 133.13L307.45 133.51L305.906 133.932L304.378 134.395L302.866 134.899L301.37 135.444L299.891 136.028L298.429 136.651L296.984 137.313L295.558 138.013L294.151 138.75L292.764 139.524L291.396 140.335L290.048 141.181L288.722 142.062L287.416 142.977L286.133 143.927L284.872 144.91L283.635 145.926L282.42 146.974L281.23 148.053L280.065 149.164L278.924 150.305L277.809 151.476L276.72 152.677L275.658 153.906L274.623 155.164L273.615 156.449L272.636 157.761L271.686 159.1L270.764 160.465L269.873 161.855L269.012 163.27L268.181 164.709L267.382 166.171L266.615 167.657L265.88 169.165L265.178 170.695L264.509 172.247L263.875 173.819L263.274 175.411L262.709 177.023L262.179 178.654L261.685 180.304L261.228 181.971L260.808 183.656L260.425 185.358L260.08 187.075L259.774 188.809L259.507 190.557L259.28 192.32L259.093 194.096L258.946 195.886L258.841 197.689L258.778 199.504L258.756 201.33L258.778 203.156L258.841 204.971L258.946 206.774L259.093 208.564L259.099 208.62L29.5584 208.62L27.8804 208.573L26.2274 208.435L24.6024 208.206L23.0064 207.891L21.4424 207.492L19.9123 207.01L18.4197 206.45L16.9667 205.812L15.5556 205.099L14.1891 204.315L12.8695 203.462L11.5995 202.541L10.3815 201.556L9.2179 200.509L8.1113 199.402L7.0642 198.239L6.0791 197.021L5.1585 195.75L4.3048 194.431L3.5206 193.064L2.8083 191.653L2.1705 190.2L1.6096 188.708L1.1282 187.178L0.7287 185.614L0.4137 184.018L0.1855 182.392L0.0468 180.739L0 179.062L0 29.558L0.0468 27.881L0.1855 26.228L0.4137 24.602L0.7287 23.006L1.1282 21.442L1.6096 19.912L2.1705 18.42L2.8083 16.967L3.5206 15.556L4.3048 14.189L5.1585 12.87L6.0791 11.599L7.0642 10.381L8.1113 9.218L9.2179 8.111L10.3815 7.064L11.5995 6.079L12.8695 5.158L14.1891 4.305L15.5556 3.521L16.9667 2.808L18.4197 2.17L19.9123 1.61L21.4424 1.128L23.0064 0.729L24.6024 0.414L26.2274 0.185L27.8804 0.047L29.5584 0"/><path id="shape6" transform="matrix(0.99998803872977 0.00489105278937222 0.0176790690246406 1.00009843170747 202.08697371963 443.668169280201)" fill="#ff7d7d" fill-rule="evenodd" stroke="#000000" stroke-opacity="0" stroke-width="0" stroke-linecap="square" stroke-linejoin="bevel" d="M20.7404 0C27.811 4.00684 30.6392 4.71393 37.7098 4.71393C42.4235 4.71393 46.5087 4.71393 49.9654 4.71393C52.7937 5.49958 51.2224 6.75663 45.2517 8.48507C36.2957 11.0777 26.8682 15.556 16.9694 14.3775C7.07058 13.199 0 11.0777 0 8.72076C0 6.3638 0.167939 6.2657 20.7404 0Z"/><path id="shape7" transform="translate(529.64350283214, 395.451741422815)" fill="#2b0000" fill-rule="evenodd" stroke="#000000" stroke-opacity="0" stroke-width="0" stroke-linecap="square" stroke-linejoin="bevel" d="M26.9688 5.4749C24.5538 1.7339 16.7188 -0.322101 9.46784 0.882899C2.21784 2.0879 -1.70216 6.0979 0.71284 9.8389C3.12784 13.5809 10.9628 15.6369 18.2138 14.4319C25.4648 13.2269 29.3838 9.2169 26.9688 5.4749M164.344 5.0029C166.687 1.2499 174.482 -0.845101 181.755 0.323899C189.029 1.4929 193.026 5.4839 190.683 9.2369C188.34 12.9899 180.545 15.0849 173.271 13.9159C165.998 12.7469 162.001 8.7569 164.344 5.0029"/><path id="shape8" transform="matrix(-0.99998803872977 0.00489105278937221 0.00489105278937221 0.99998803872977 373.37688655759 308.61440410645)" fill="#63352d" fill-rule="evenodd" stroke="#000000" stroke-opacity="0" stroke-width="0" stroke-linecap="square" stroke-linejoin="bevel" d="M1.13501 34.4622C2.57501 27.5022 7.13501 21.3822 14.815 16.1022C26.335 8.1822 40.375 1.3422 52.975 0.262197C65.575 -0.817803 67.375 1.3422 71.335 8.5422C75.295 15.7422 73.495 19.3422 72.775 24.3822C72.055 29.4222 69.535 26.1822 56.935 29.4222C44.335 32.6622 40.735 30.1422 28.855 37.3422C16.975 44.5422 19.855 49.5822 14.095 52.1022C8.33501 54.6222 2.57501 49.2222 1.13501 42.0222C-0.304986 34.8222 -0.449953 34.8318 1.13501 34.4622Z"/><path id="shape04" transform="matrix(0.999988008541717 -0.00489105264171909 0.00489105264171909 0.999988008541717 99.4052124092055 309.695424617793)" fill="#63352d" fill-rule="evenodd" stroke="#000000" stroke-opacity="0" stroke-width="0" stroke-linecap="square" stroke-linejoin="bevel" d="M1.13501 34.4622C2.57501 27.5022 7.13501 21.3822 14.815 16.1022C26.335 8.1822 40.375 1.3422 52.975 0.262197C65.575 -0.817803 67.375 1.3422 71.335 8.5422C75.295 15.7422 73.495 19.3422 72.775 24.3822C72.055 29.4222 69.535 26.1822 56.935 29.4222C44.335 32.6622 40.735 30.1422 28.855 37.3422C16.975 44.5422 19.855 49.5822 14.095 52.1022C8.33501 54.6222 2.57501 49.2222 1.13501 42.0222C-0.304986 34.8222 -0.449953 34.8318 1.13501 34.4622Z"/><path id="shape9" transform="translate(78.2127486343687, 169.785)" fill="#62443b" fill-rule="evenodd" stroke="#34120c" stroke-width="1" stroke-linecap="square" stroke-linejoin="bevel" d="M318.185 152.91L318.131 151.505L317.865 147.368L317.496 143.26L317.025 139.183L316.452 135.138L315.779 131.126L315.007 127.148L314.138 123.206L313.173 119.302L312.114 115.435L310.961 111.609L309.715 107.823L308.38 104.08L306.955 100.381L305.441 96.727L303.841 93.119L302.156 89.558L300.386 86.047L298.533 82.586L296.599 79.176L294.584 75.82L292.49 72.517L290.319 69.27L288.072 66.08L285.749 62.949L283.353 59.876L280.884 56.865L278.344 53.915L275.735 51.03L273.057 48.208L270.313 45.453L267.501 42.766L264.625 40.147L261.687 37.598L258.686 35.12L255.626 32.715L252.505 30.384L249.327 28.128L246.091 25.949L242.801 23.848L239.457 21.826L236.06 19.885L232.611 18.025L229.113 16.249L225.565 14.557L221.97 12.951L218.329 11.432L214.643 10.002L210.913 8.661L207.142 7.412L203.329 6.254L199.478 5.191L195.587 4.222L191.66 3.35L187.696 2.576L183.698 1.901L179.668 1.325L175.606 0.852L171.513 0.481L167.391 0.215L163.241 0.054L159.065 0L154.889 0.054L150.739 0.215L146.618 0.481L142.525 0.852L138.462 1.325L134.432 1.901L130.434 2.576L126.472 3.35L122.544 4.222L118.654 5.191L114.801 6.254L110.989 7.412L107.217 8.661L103.488 10.002L99.8016 11.432L96.1607 12.951L92.5655 14.557L89.0186 16.249L85.52 18.025L82.0707 19.885L78.6735 21.826L75.3293 23.848L72.039 25.949L68.8045 28.128L65.6257 30.384L62.5056 32.715L59.444 35.12L56.4437 37.598L53.5049 40.147L50.6292 42.766L47.8187 45.453L45.0732 48.208L42.3956 51.03L39.7858 53.915L37.2467 56.865L34.7774 59.876L32.3815 62.949L30.059 66.08L27.8119 69.27L25.64 72.517L23.5463 75.82L21.5325 79.176L19.5977 82.586L17.7448 86.047L15.9755 89.558L14.2899 93.119L12.6889 96.727L11.1762 100.381L9.75098 104.08L8.41496 107.823L7.17006 111.609L6.01719 115.435L4.9573 119.302L3.99225 123.206L3.12388 127.148L2.35221 131.126L1.67909 135.138L1.10638 139.183L0.634074 143.26L0.264972 147.368L0 151.505L5.66725 155.655L318.185 152.91"/><ellipse id="shape2" transform="matrix(0.951829867562037 -0.306626651184864 0.306626651184864 0.951829867562037 153.204554898528 396.799115130864)" rx="11.6916179009202" ry="11.8893669876312" cx="11.6916179009202" cy="11.8893669876312" fill="#2b0000" fill-rule="evenodd" stroke="#000000" stroke-opacity="0" stroke-width="0" stroke-linecap="square" stroke-linejoin="bevel"/><ellipse id="shape02" transform="matrix(-0.951829871695689 -0.306626652516497 -0.306626652516497 0.951829871695689 321.275445101472 397.017498848161)" rx="11.6916179009202" ry="11.8893669876312" cx="11.6916179009202" cy="11.8893669876312" fill="#2b0000" fill-rule="evenodd" stroke="#000000" stroke-opacity="0" stroke-width="0" stroke-linecap="square" stroke-linejoin="bevel"/>
</svg>
