<?xml version="1.0" standalone="no"?>
<!DOCTYPE svg PUBLIC "-//W3C//DTD SVG 20010904//EN" "http://www.w3.org/TR/2001/REC-SVG-20010904/DTD/svg10.dtd">
<!-- Created using Krita: http://krita.org -->
<svg xmlns="http://www.w3.org/2000/svg" 
    xmlns:xlink="http://www.w3.org/1999/xlink"
    xmlns:krita="http://krita.org/namespaces/svg/krita"
    xmlns:sodipodi="http://sodipodi.sourceforge.net/DTD/sodipodi-0.dtd"
    width="344.16pt"
    height="260.64pt"
    viewBox="0 0 344.16 260.64">
<defs/>
<ellipse id="shape0" transform="matrix(4.2169168727924 -1.09032914349781 1.11752654404025 4.32210453830374 27.9596591705919 97.5967476111581)" rx="12.96" ry="13.14" cx="12.96" cy="13.14" fill="none" stroke="#000000" stroke-width="0.4536" stroke-linecap="square" stroke-linejoin="bevel"/><path id="shape1" transform="matrix(4.2169168727924 -1.09032914349781 1.11752654404025 4.32210453830374 59.5441035534659 150.849476653112)" fill="none" stroke="#000000" stroke-width="0.4536" stroke-linecap="square" stroke-linejoin="bevel" d="M0 0C3.12 0.24 4.68 1.08 4.68 2.52"/><path id="shape2" transform="matrix(4.2169168727924 -1.09032914349781 1.11752654404025 4.32210453830374 50.5627339359407 136.962158038658)" fill="none" stroke="#000000" stroke-width="0.4536" stroke-linecap="square" stroke-linejoin="bevel" d="M0.236468 0L7.79647 0C8.27647 4.08 8.27647 6.36 7.79647 6.84C7.07647 7.56 1.31647 8.28 0.596468 7.2C-0.123532 6.12 -0.123533 6.12 0.236468 0Z"/><path id="shape0" transform="matrix(-4.21691680673238 1.09032912641728 1.11752652653366 4.3221044705959 136.572947325793 114.723293971399)" fill="none" stroke="#000000" stroke-width="0.4536" stroke-linecap="square" stroke-linejoin="bevel" d="M0.236468 0L7.79647 0C8.27647 4.08 8.27647 6.36 7.79647 6.84C7.07647 7.56 1.31647 8.28 0.596468 7.2C-0.123532 6.12 -0.123533 6.12 0.236468 0Z"/><path id="shape01" transform="matrix(-4.21691677463664 1.09032911811858 1.11752651802796 4.32210443769956 133.37262673344 132.590308810684)" fill="none" stroke="#000000" stroke-width="0.4536" stroke-linecap="square" stroke-linejoin="bevel" d="M0 0C3.12 0.24 4.68 1.08 4.68 2.52"/><path id="shape3" transform="matrix(4.2169168727924 -1.09032914349781 1.11752654404025 4.32210453830374 19.0229241389185 158.390044129692)" fill="none" stroke="#000000" stroke-width="0.4536" stroke-linecap="square" stroke-linejoin="bevel" d="M5.23897 2.08686C-1.96753 -5.11965 -2.41392 8.63559 8.16639 8.83265"/><path id="shape02" transform="matrix(-4.21691683275929 1.09032913314681 1.11752653343106 4.32210449727203 174.987115942995 117.282344628503)" fill="none" stroke="#000000" stroke-width="0.4536" stroke-linecap="square" stroke-linejoin="bevel" d="M5.45229 2.06689C-1.75421 -5.13961 -2.8085 8.81269 8.37971 8.81269"/><path id="shape4" transform="matrix(4.2169168727924 -1.09032914349781 1.11752654404025 4.32210453830374 94.5324649298979 160.892619608506)" fill="none" stroke="#000000" stroke-width="0.4536" stroke-linecap="square" stroke-linejoin="bevel" d="M0 0C0.24 0.72 0.84 1.08 1.8 1.08C2.76 1.08 3.36 0.72 3.6 0L3.6 0"/><ellipse id="shape5" transform="matrix(3.92857123400781 1.4145064244305 -1.48874177783975 4.16025367851259 231.369504482271 66.7174896145729)" rx="12.96" ry="13.14" cx="12.96" cy="13.14" fill="none" stroke="#000000" stroke-width="0.4536" stroke-linecap="square" stroke-linejoin="bevel"/><path id="shape6" transform="matrix(3.92857123400781 1.4145064244305 -1.48874177783975 4.16025367851259 227.096606088117 127.733514053105)" fill="none" stroke="#000000" stroke-width="0.4536" stroke-linecap="square" stroke-linejoin="bevel" d="M0 0C3.12 0.24 4.68 1.08 4.68 2.52"/><path id="shape7" transform="matrix(3.92857123400781 1.4145064244305 -1.48874177783975 4.16025367851259 227.622734192555 111.413781976426)" fill="none" stroke="#000000" stroke-width="0.4536" stroke-linecap="square" stroke-linejoin="bevel" d="M0.236468 0L7.79647 0C8.27647 4.08 8.27647 6.36 7.79647 6.84C7.07647 7.56 1.31647 8.28 0.596468 7.2C-0.123532 6.12 -0.123533 6.12 0.236468 0Z"/><path id="shape03" transform="matrix(-3.92857117246486 -1.41450640227158 -1.4887417545179 4.16025361334022 307.751714606351 140.2647183467)" fill="none" stroke="#000000" stroke-width="0.4536" stroke-linecap="square" stroke-linejoin="bevel" d="M0.236468 0L7.79647 0C8.27647 4.08 8.27647 6.36 7.79647 6.84C7.07647 7.56 1.31647 8.28 0.596468 7.2C-0.123532 6.12 -0.123533 6.12 0.236468 0Z"/><path id="shape04" transform="matrix(-3.92857114256378 -1.4145063915055 -1.48874174318681 4.16025358167576 295.42148605624 153.179641930764)" fill="none" stroke="#000000" stroke-width="0.4536" stroke-linecap="square" stroke-linejoin="bevel" d="M0 0C3.12 0.24 4.68 1.08 4.68 2.52"/><path id="shape8" transform="matrix(3.92857123400781 1.4145064244305 -1.48874177783975 4.16025367851259 190.957371833588 111.730459249906)" fill="none" stroke="#000000" stroke-width="0.4536" stroke-linecap="square" stroke-linejoin="bevel" d="M5.23897 2.08686C-1.96753 -5.11965 -2.41392 8.63559 8.16639 8.83265"/><path id="shape05" transform="matrix(-3.92857119671209 -1.41450641100194 -1.48874176370645 4.16025363901741 336.685756614444 163.404939673426)" fill="none" stroke="#000000" stroke-width="0.4536" stroke-linecap="square" stroke-linejoin="bevel" d="M5.45229 2.06689C-1.75421 -5.13961 -2.8085 8.81269 8.37971 8.81269"/><path id="shape9" transform="matrix(3.92857123400781 1.4145064244305 -1.48874177783975 4.16025367851259 249.218928012716 155.141410538047)" fill="none" stroke="#000000" stroke-width="0.4536" stroke-linecap="square" stroke-linejoin="bevel" d="M0 0C0.24 0.72 0.84 1.08 1.8 1.08C2.76 1.08 3.36 0.72 3.6 0L3.6 0"/>
</svg>
