<?xml version="1.0" encoding="iso-8859-1"?>
<!-- Generator: Adobe Illustrator 19.0.0, SVG Export Plug-In . SVG Version: 6.00 Build 0)  -->
<svg version="1.1" id="Capa_1" xmlns="http://www.w3.org/2000/svg" xmlns:xlink="http://www.w3.org/1999/xlink" x="0px" y="0px"
	 viewBox="0 0 512 512" style="enable-background:new 0 0 512 512;" xml:space="preserve">
<g>
	<g>
		<path d="M511.9,235.3C494.8,99.1,402.5,11.1,263.5,0l-14.9,0.2c-23.8,4-53.5,11.3-72.1,32.4c-11.6,13.1-21.3,36.1-22.7,53.4
			c-5.2,65.1,41.8,89.7,79.6,109.5c0,0,50,26.1,74.8,38.9l43.5,22.6c20.3,10.5,36.2,20.2,48.2,33.2c25.9,28.1,36.7,61.3,34.2,104.5
			c-0.4,6.6,3.3,12.7,9.3,15.5c2.2,1,4.5,1.5,6.7,1.5c4,0,8.1-1.6,11.1-4.5c6.9-6.7,13.5-15.8,19.7-27.2
			c16.5-30,26.8-64.2,29.9-99.2c0.8-1.8,1.2-3.9,1.2-6L511.9,235.3z M480,271.6c-0.4,1.3-0.7,2.6-0.8,3.9
			c-2.2,27.7-9.1,50.9-16.5,68.8c-6-28.7-19-53.6-39.3-75.6c-16.1-17.3-36.8-29.4-56.9-39.9l-43.6-22.7
			c-24.7-12.8-49.3-25.6-73.5-38.3l-1.2-0.6c-41.1-21.5-65.8-37.5-62.5-78.6c0.7-9.4,7.2-26.2,14.8-34.8
			C212.6,40,236.8,34.7,251.3,32h10.9c121.4,9.7,202.9,87.2,217.8,205.3V271.6z"/>
	</g>
</g>
<g>
	<g>
		<path d="M382.1,360.5c-9.3-33.7-39-53.5-69.8-69.9c-21.4-11.4-42.3-22.1-63.2-32.8c-19.7-10.1-39.4-20.3-59.7-31l-2.8-1.5
			c-18.9-10-36.8-19.5-49.5-32.2c-16.3-16.3-30-43.3-34-67.2c-1.6-9.9-1.6-28.7-1.6-34.9s-3.7-11.9-9.3-14.5
			c-5.7-2.7-12.4-1.7-17.1,2.3C52.8,97.6,32.3,128.3,18.9,163C7.5,192.3,1.3,219.4,0,246.6v20.6C3.5,330.5,26.9,385,71.7,433.7
			c40.1,43.6,96.7,70.7,165.5,78.3l34.4-0.2c29.4-4.6,55.5-18.2,75.7-39.5C359.3,459.8,397,414.5,382.1,360.5z M324.1,450.3
			c-15.3,16.1-35.2,26.4-55,29.7l-30.1,0.1c-59.2-6.6-108.9-30.1-143.7-68C55.7,369,35,321,32,266.3v-18.9
			c1.2-23.2,6.5-46.4,16.8-72.8c6.2-16,14-30.9,22.7-43.7c0,0.1,0,0.2,0,0.3c5.1,30.5,21.9,63.7,42.9,84.6
			c16.1,16.1,37,27.2,57.2,37.9l2.8,1.5c20.4,10.7,40.2,21,60.1,31.1c20.8,10.6,41.5,21.3,62.7,32.6c24.5,13,48,28.1,54,50.1
			C361.6,407,333.1,440.8,324.1,450.3z"/>
	</g>
</g>
<g>
</g>
<g>
</g>
<g>
</g>
<g>
</g>
<g>
</g>
<g>
</g>
<g>
</g>
<g>
</g>
<g>
</g>
<g>
</g>
<g>
</g>
<g>
</g>
<g>
</g>
<g>
</g>
<g>
</g>
</svg>
